# xmcd
#
# Track frame offsets: 
#        150
#        21627
#        43124
#        67945
#        84967
#        114284
#        139814
#        159191
#        180027
#        201180
#        223954
#        251626
#        273380
#        291284
#        305951
#
# Disc length: 4402 seconds
#
# Revision: 3
# Processed by: cddbd v1.4PL0 Copyright (c) Steve Scherf et al.
# Submitted via: ExactAudioCopy v0.90a11
#
DISCID=db11300f
DTITLE=George Michael - Ladies and Gentlemen CD 2 (For the Feet)
DYEAR=2000
DGENRE=Blues
TTITLE0=Outside
TTITLE1=As
TTITLE2=Fastlove
TTITLE3=Too Funky
TTITLE4=Freedom 90
TTITLE5=Star People 97
TTITLE6=Killer - Papa Was A Rollin' Stone
TTITLE7=I Want Your Sex (Part II)
TTITLE8=The Strangest Thing 97
TTITLE9=Fantasy
TTITLE10=Spinning The Wheel
TTITLE11=Waiting For That Day
TTITLE12=I Knew Your Were Waiting (For Me)
TTITLE13=Faith
TTITLE14=Somebody To Love
EXTD=YEAR: 2000  ID3G:   0
EXTT0=
EXTT1=
EXTT2=
EXTT3=
EXTT4=
EXTT5=
EXTT6=
EXTT7=
EXTT8=
EXTT9=
EXTT10=
EXTT11=
EXTT12=
EXTT13=
EXTT14=
PLAYORDER=
